# xmcd
#
# Track frame offsets:
# 150
# 12602
# 19705
# 35157
# 47042
# 60710
# 72032
# 81645
# 94232
# 106957
# 122370
# 137475
#
# Disc length: 1988 seconds
#
#
# Revision: 0
# Processed by: cddbd v1.5.1PL2 Copyright (c) Steve Scherf et al.
# Submitted via: FreeRIP 2.945 
#
DISCID=a207c20c
DTITLE=PEDRO BENTO E ZÉ DA ESTRADA - OS AMANTES DA RANCHEIRA
DYEAR=1900
DGENRE=Brega
TTITLE0=Dois corações
TTITLE1=Morrendo aos poucos
TTITLE2=Maldito dinheiro
TTITLE3=O dia mais lindo da vida
TTITLE4=Copa da mesa
TTITLE5=Prisão de pedra
TTITLE6=Coração que chora
TTITLE7=Ladrão de beijos
TTITLE8=Boneca cobiçada
TTITLE9=Amanheci em teus braços
TTITLE10=Carta do pracinha
TTITLE11=Mulher de ninguém
EXTD=
EXTT0=
EXTT1=
EXTT2=
EXTT3=
EXTT4=
EXTT5=
EXTT6=
EXTT7=
EXTT8=
EXTT9=
EXTT10=
EXTT11=
PLAYORDER=
